<?xml version="1.0" encoding="UTF-8" standalone="no"?>
<!-- Created with Inkscape (http://www.inkscape.org/) -->

<svg
   width="32"
   height="32"
   viewBox="0 0 32 32"
   version="1.1"
   id="svg1"
   inkscape:version="1.4.2 (ebf0e940d0, 2025-05-08)"
   sodipodi:docname="favicon.svg"
   xmlns:inkscape="http://www.inkscape.org/namespaces/inkscape"
   xmlns:sodipodi="http://sodipodi.sourceforge.net/DTD/sodipodi-0.dtd"
   xmlns="http://www.w3.org/2000/svg"
   xmlns:svg="http://www.w3.org/2000/svg">
  <sodipodi:namedview
     id="namedview1"
     pagecolor="#505050"
     bordercolor="#eeeeee"
     borderopacity="1"
     inkscape:showpageshadow="0"
     inkscape:pageopacity="0"
     inkscape:pagecheckerboard="0"
     inkscape:deskcolor="#505050"
     inkscape:document-units="px"
     inkscape:zoom="14.875"
     inkscape:cx="16"
     inkscape:cy="15.966387"
     inkscape:window-width="1806"
     inkscape:window-height="988"
     inkscape:window-x="0"
     inkscape:window-y="0"
     inkscape:window-maximized="1"
     inkscape:current-layer="layer1" />
  <defs
     id="defs1">
    <clipPath
       id="SvgjsClipPath206272">
      <path
         d="M -2.4253402,-0.5894207 H -0.4 v 2.2528414 h -2.0253402 z"
         id="path5" />
    </clipPath>
    <clipPath
       id="SvgjsClipPath2062706a1148b3-dbea-4f65-aa34-5814b2a2fd40">
      <path
         d="M -2.4253402,-0.5894207 H -0.4 v 2.2528414 h -2.0253402 z"
         id="path6" />
    </clipPath>
  </defs>
  <g
     inkscape:label="Layer 1"
     inkscape:groupmode="layer"
     id="layer1">
    <g
       clip-path="url(#SvgjsClipPath206272)"
       id="g2"
       transform="matrix(13.732002,0,0,13.732002,35.398663,8.6258871)">
      <g
         clip-path="url(#SvgjsClipPath2062706a1148b3-dbea-4f65-aa34-5814b2a2fd40)"
         id="g1">
        <path
           d="m -2.2770048,0.92491216 0.4189375,0.14421824 c 0.057798,0.019898 0.1009715,0.065866 0.1241323,0.1224333 0.00689,0.016834 0.016604,0.032844 0.029206,0.047343 0.041923,0.048219 0.104776,0.067304 0.16322,0.055619 0.057485,-0.011497 0.1171278,-0.00101 0.1628344,0.0357 l 0.3577312,0.2873211 c 0.0528571,0.042455 0.14898173,0.059966 0.21120944,0.033053 0.0325836,-0.014092 0.0598929,-0.035982 0.0801768,-0.063281 0.0132482,-0.017824 0.0599346,-0.096489 0.1538807,-0.097094 0.0417145,-2.71e-4 0.0810732,-0.022233 0.11342748,-0.052325 0.0518147,-0.048198 0.07164,-0.1218913 0.0581313,-0.1913633 L -0.50797603,0.71237897 c -0.007745,-0.039807 2.6058e-4,-0.0811983 0.0233276,-0.11454278 0.009152,-0.0132273 0.015927,-0.0311764 0.0187621,-0.056474 0.002825,-0.025235 -0.001001,-0.0517313 -0.0157602,-0.0724009 l -7.4006e-4,-0.001022 c -0.0269341,-0.037222 -0.038108,-0.0835644 -0.0311034,-0.12896877 l 0.0813338,-0.52715319 c 0.0114345,-0.0741312 -0.0150514,-0.15114977 -0.0745899,-0.19677301 -0.0351477,-0.0269341 -0.0767475,-0.0409431 -0.11916035,-0.0411829 -0.0249223,-1.3551e-4 -0.0502721,-0.004868 -0.0706915,-0.0191582 -0.002022,-0.001418 -0.004169,-0.002741 -0.006452,-0.00393 -0.0203673,-0.0106319 -0.039463,-0.0240781 -0.0511476,-0.0438617 -0.0226292,-0.038306 -0.0577457,-0.0680648 -0.10110702,-0.0843149 -0.0705247,-0.0264233 -0.15019084,-0.007807 -0.20702964,0.0416102 l -0.3359359,0.29206375 c -0.045634,0.0396819 -0.1071734,0.0514812 -0.1664409,0.0394317 -0.050428,-0.0102462 -0.1048594,0.002189 -0.1467198,0.0385874 -0.024703,0.0214826 -0.041777,0.0484584 -0.050991,0.07753969 -0.019304,0.0609248 -0.060841,0.11223921 -0.1204111,0.13537916 l -0.4153935,0.16137513 c -0.02216,0.00861 -0.04209,0.0207113 -0.059247,0.0356272 -0.034762,0.0302174 -0.0581,0.0719736 -0.065449,0.11962939 -0.00805,0.0521587 0.0044,0.10331678 0.03373,0.14467684 0.022931,0.0323438 0.021983,0.0865351 7.921e-4,0.12004634 -0.027737,0.0438721 -0.037305,0.0971461 -0.025141,0.1502742 0.015781,0.0689925 0.069628,0.1230587 0.1365466,0.14609442 z M -1.508654,0.11006262 c 3.857e-4,-2.189e-4 7.713e-4,-4.4821e-4 0.00115,-6.671e-4 0.035002,-0.02051326 0.078009,-0.02187872 0.113959,-0.003064 l 0.67589519,0.35382242 c 0.027153,0.0142175 0.0445601,0.0419438 0.0455607,0.0725782 l 3.127e-5,0.001042 c 9.5896e-4,0.0292793 -0.0141029,0.0567554 -0.0392858,0.0717026 L -1.3499264,0.98463826 c -0.041683,0.0247451 -0.092956,0.0237341 -0.1351603,-1.0423e-4 -0.00113,-6.3583e-4 -0.00225,-0.001261 -0.00339,-0.001876 -0.044122,-0.02388 -0.073641,-0.0678564 -0.073933,-0.11803462 l -0.00383,-0.65312002 c -2.397e-4,-0.0416728 0.021472,-0.0806355 0.057579,-0.10145099 z m 0.71164742,1.44182768 c -0.009058,0.030332 -0.0288937,0.049084 -0.0531802,0.058288 -0.0410161,0.015541 -0.0947279,0.0039 -0.13075117,-0.025037 L -1.3596098,1.2810069 c -0.017157,-0.01378 -0.00213,-0.041026 0.018679,-0.033866 l 0.45232355,0.1557153 c 0.0248077,0.00854 0.0480623,0.021993 0.0656779,0.041423 0.0222331,0.024537 0.0399008,0.060852 0.0259334,0.1076112 z m -0.0398904,-0.1844526 c 0,0 -0.44467272,-0.1530781 -0.44467272,-0.1530781 -9.382e-4,-3.022e-4 -0.00188,-6.045e-4 -0.0028,-9.172e-4 -0.086473,-0.029019 -0.09552,-0.1488775 -0.017094,-0.1954492 l 0.59129876,-0.35110196 c 0.0417145,-0.0247764 0.0934771,0.010069 0.0862224,0.0580375 l -1.5635e-4,0.001042 c -0.005941,0.0385145 -0.0118827,0.0770394 -0.017824,0.11556427 -0.0124143,0.0804791 -0.0248285,0.16095829 -0.0372428,0.24143719 -0.0107986,0.070025 -0.0216077,0.140049 -0.0324793,0.2105319 -0.008412,0.054692 -0.0737873,0.091663 -0.12524762,0.073923 z m 0.28963511,-0.59349811 0.0941233,0.48404201 c 0.009829,0.050564 -0.00369,0.1043278 -0.0405053,0.1403511 -0.004305,0.00421 -0.008797,0.00813 -0.0134462,0.011737 -0.0211282,0.016396 -0.0491359,0.019377 -0.0739124,0.010058 -0.043476,-0.016354 -0.0878589,-0.073964 -0.0805208,-0.121516 l 0.0808439,-0.52400531 c 0.002898,-0.0188038 0.0298005,-0.019325 0.0334278,-6.4625e-4 z m 0.0105276,-1.11852497 c 0.016396,0.0126749 0.0308845,0.0291751 0.0424649,0.0493861 0.0150618,0.0263087 0.0188351,0.0575997 0.0142175,0.0875566 -0.0149472,0.0969064 -0.0548062,0.35526085 -0.0766537,0.4968732 -0.002898,0.0188038 -0.0297901,0.019252 -0.0334174,5.7329e-4 l -0.10131548,-0.52103466 c -0.005858,-0.0301445 0.00197,-0.0612688 0.0214097,-0.0850341 8.1302e-4,-9.9022e-4 0.001605,-0.002012 0.002366,-0.003075 0.0313536,-0.0432884 0.0886406,-0.0579437 0.13092837,-0.0252559 z m -0.84468133,0.15282793 0.3529051,-0.30681287 c 0.042736,-0.0371594 0.10271228,-0.0516271 0.15571528,-0.0316767 0.005962,0.002241 0.0117055,0.004826 0.0172195,0.007734 0.0411203,0.0216494 0.0563072,0.0733182 0.0391399,0.11650238 l -0.004138,0.0103921 c -0.009037,0.022723 -0.0271217,0.0406617 -0.0499177,0.0495216 l -0.48933708,0.19009161 c -0.02215,0.00861 -0.039515,-0.0201693 -0.021587,-0.0357627 z m 0.066783,0.0721716 0.46817762,-0.18187797 c 0.0212429,-0.008255 0.0451021,-0.006202 0.0653026,0.005973 0.0186996,0.0112677 0.0317601,0.029936 0.0359295,0.051377 l 0.11469912,0.5899125 v 0 c 0.008578,0.0447477 -0.0383373,0.0795931 -0.0786967,0.0584649 L -1.3267865,0.0809709 c -0.077936,-0.0407972 -0.081824,-0.15655952 -0.00252,-0.19465706 0.00474,-0.002272 0.00963,-0.004263 0.014676,-0.0059 z m -0.3047594,0.3767956 0.00337,0.57501746 c 5.525e-4,0.0945403 -0.1087161,0.15363054 -0.1833268,0.0955722 -5.108e-4,-3.9608e-4 -0.00102,-8.026e-4 -0.00153,-0.001209 l -0.379735,-0.30498878 c -0.019669,-0.0158019 -0.02758,-0.0411516 -0.025694,-0.0674498 0.00148,-0.0206488 0.012393,-0.0395255 0.028008,-0.0530968 l 0.3790575,-0.32954631 c 8.339e-4,-7.2964e-4 0.00168,-0.001438 0.00254,-0.002147 0.070212,-0.0578395 0.1767914,-0.003106 0.177323,0.0878589 z m -0.753831,0.11428219 v 0 c 0.00822,-0.0532115 0.043059,-0.0966145 0.093206,-0.11604375 l 0.442609,-0.17194446 c 0.02215,-0.0086097 0.039515,0.02016929 0.021587,0.0357627 L -2.2081999,0.4603932 c -0.019596,0.0170423 -0.04554,0.0249119 -0.071306,0.021639 l -0.011101,-0.001407 c -0.053409,-0.006775 -0.09059,-0.0558903 -0.082616,-0.10914345 z m 0.0072,0.38875125 c -1.251e-4,-7.0879e-4 -2.502e-4,-0.001418 -3.648e-4,-0.002116 -0.00863,-0.0523463 0.030645,-0.10080474 0.083054,-0.10910176 l 1.772e-4,-3.127e-5 c 0.029957,-0.004743 0.060518,0.003388 0.084169,0.022379 l 0.4072424,0.32707597 c 0.017157,0.0137797 0.00213,0.0410265 -0.018679,0.0338656 L -2.2613905,0.87706874 c -0.052763,-0.018168 -0.09478,-0.0618942 -0.1046197,-0.1168255 z"
           fill="#f53003"
           fill-rule="nonzero"
           id="path1" />
      </g>
    </g>
  </g>
</svg>
