<svg xmlns="http://www.w3.org/2000/svg" version="1.1" xmlns:xlink="http://www.w3.org/1999/xlink" viewBox="0 0 13.347672773045698 3.6710699675890472"><g transform="matrix(0.7213312299225192,0,0,0.7213312299225192,4.120769688697592,1.448180113326131)"><g transform="matrix(1,0,0,1,0,0)" clip-path="url(#SvgjsClipPath66177)"><g clip-path="url(#SvgjsClipPath6617581fb335c-b1b1-4e61-8b79-67a556952325)"><path d=" M -2.277004756346108 0.9249121621415326 L -1.858067334551628 1.0691303689475742 C -1.800269563755191 1.0890286456744267 -1.757095827661622 1.1349958538281306 -1.7339350257302093 1.191563663045852 C -1.7270451562087585 1.2083974592291244 -1.7173305444175448 1.2244078065588495 -1.7047286499373118 1.2389067604232036 C -1.6628057222288772 1.28712542367015 -1.599952600875854 1.306210674946665 -1.5415085790804306 1.2945260399488643 C -1.4840235103802777 1.2830290262088335 -1.4243807972157667 1.2935149698375468 -1.3786741741422996 1.3302261959412534 L -1.020942975993749 1.6175473054099248 C -0.9680858983185945 1.6600018266820415 -0.8719612739209854 1.6775131440739288 -0.8097335567605295 1.6505999169871115 C -0.7771499983277681 1.636507475847926 -0.7498406819189918 1.6146183291080674 -0.7295567392733893 1.5873194361025005 C -0.7163085937941698 1.5694954166143298 -0.6696221708190138 1.4908299925925605 -0.5756760376921812 1.4902254352064122 C -0.5339615780479361 1.489954426722966 -0.4946028075290281 1.4679923161606412 -0.4622485639668745 1.4378999510949397 C -0.4104338266126657 1.3897021346544125 -0.3906085137082793 1.3160086739635546 -0.4041172442677352 1.246536691572526 L -0.5079760338467605 0.7123789707007124 C -0.5157206224313868 0.6725719938437975 -0.5077154487665241 0.6311806596990455 -0.48464845746399665 0.5978361928319937 C -0.475496709446094 0.5846088941591931 -0.46872149735994717 0.5666597938325091 -0.4658863316869746 0.5413621942431577 C -0.4630615894172121 0.5161271350730632 -0.46688697839508264 0.48963084411462465 -0.4816465173396731 0.46896123555027214 L -0.48238657896754455 0.4679397420357454 C -0.5093206528607803 0.4307177691747759 -0.5204945411013178 0.38437531850553175 -0.5134900141445631 0.33897097412513866 L -0.4321561989011733 -0.18818221978991984 C -0.4207217255803992 -0.26231346341557527 -0.4472075931356285 -0.3393319897302501 -0.5067460722680448 -0.38495522557804174 C -0.5418937878903327 -0.4118892994712776 -0.5834935900992737 -0.42589835338478726 -0.6259064177585527 -0.4261380916586048 C -0.6508287748323631 -0.4262735959003277 -0.6761784914377618 -0.431005820957421 -0.6965979383250875 -0.445296306757586 C -0.6986200785477219 -0.4467138895940721 -0.7007672996088701 -0.4480376618016731 -0.7030500249117413 -0.44922592976755116 C -0.7234173547830194 -0.4598578010411969 -0.7425130294627438 -0.47330399118139593 -0.7541976644605448 -0.4930876104729446 C -0.776826872828275 -0.5313936172676976 -0.8119433182409344 -0.5611524334306962 -0.8553046755922737 -0.5774025190342391 C -0.925829421707457 -0.6038258461702116 -1.0054954924373338 -0.5852096480381221 -1.0623343101385008 -0.5357922934220883 L -1.3982701721760777 -0.24372853549311407 C -1.443903831427079 -0.2040466394747128 -1.5054436039757106 -0.1922473470416079 -1.564711074624681 -0.20429680115173976 C -1.615139499352032 -0.21454300650663555 -1.6695705109118144 -0.20210788647775385 -1.7114308982009923 -0.16570936247033136 C -1.7361343638074045 -0.14422672845564133 -1.753207898264494 -0.1172509609495676 -1.7624221867016538 -0.08816966599518372 C -1.7817263294455674 -0.02724487423590971 -1.8232635912352522 0.024069539764245085 -1.8828333405772968 0.04720949488923876 L -2.2982268052805614 0.20858462337804606 C -2.320386960503866 0.217194354429057 -2.340316507440347 0.22929592555523615 -2.3574734291231128 0.24421181554796867 C -2.3922354788266507 0.2744292614521835 -2.415573478612624 0.31618541470926675 -2.4229219778752906 0.3638412141829023 C -2.430968845152991 0.4159999238430232 -2.4185233017209002 0.4671579867950364 -2.3891918450894893 0.5085180507301599 C -2.3662603580286845 0.5408618708891038 -2.367208887720745 0.5950531441750688 -2.3883996664455704 0.6285643854934717 C -2.4161363423859346 0.6724364896020747 -2.4257050265322158 0.7257105034056073 -2.41354091498678 0.7788385895642076 C -2.3977598825276623 0.8478310954076007 -2.3439125815476096 0.9018972878550524 -2.2769943329428983 0.9249330089479513 Z M -1.5086540121642238 0.1100626162422621 C -1.5082683462454738 0.10984372477486348 -1.5078826803267238 0.10961440990425542 -1.5075074378111835 0.10939551843685702 C -1.4725056498338283 0.08888226092064633 -1.4294986881916103 0.0875167951002076 -1.3935483705221945 0.10633103789327669 L -0.7176532128081903 0.46015345983828126 C -0.6905002474475559 0.47437098181598025 -0.6730931640877631 0.5020972343531347 -0.6720925173796553 0.5327316163857276 L -0.6720612471700271 0.533773956706673 C -0.6711022940747571 0.5630532963220369 -0.6861641117124218 0.5905293871821644 -0.7113470538664692 0.6054765473845252 L -1.349926428090619 0.9846382625317187 C -1.3916096175252357 1.0093834217509687 -1.442882337912553 1.0083723516396514 -1.4850866975076427 0.9845340284996242 C -1.4862124250542639 0.9838982009038473 -1.487338152600885 0.98327279671128 -1.488474303550716 0.9826578159219221 C -1.532596569336346 0.9587777991690571 -1.5621156472255269 0.9148014610283597 -1.5624075025153918 0.8646231979780352 L -1.5662328914932624 0.21150317627669368 C -1.56647262976708 0.16983041024528622 -1.5447606808817818 0.13086772904833732 -1.508654012164224 0.11005219283905243 Z M -0.7970065814417833 1.551890288593557 C -0.8060645188308011 1.5822223919330753 -0.8259002551383969 1.6009740943068882 -0.850186784616431 1.6101779593408383 C -0.8912028762456428 1.6257192535261382 -0.9449146729839726 1.6140763121411752 -0.9809379544758547 1.5851409448317237 L -1.359609769672204 1.2810068859861987 C -1.3767666913549694 1.267227146943297 -1.3617361439269329 1.2399803709537776 -1.3409310311208578 1.2471412489586744 L -0.8886074488464881 1.4028564695047465 C -0.8637997492079814 1.4113932367332913 -0.8405451366476837 1.4248498502767 -0.8229295852237022 1.4442790738591273 C -0.800696466177931 1.468815765014188 -0.7830287977379022 1.5051309017959345 -0.796996158038574 1.5518902885935575 Z M -0.8368969455243738 1.3674377453990127 C -0.8368969455243738 1.3674377453990127 -1.281569749843002 1.214359645864933 -1.281569749843002 1.214359645864933 C -1.2825078561318533 1.2140573671718586 -1.2834459624207044 1.2137550884787844 -1.2843736453063461 1.213442386382501 C -1.370846198331998 1.1844236318473738 -1.3798937123178063 1.064564918341832 -1.3014680265698548 1.0179931528019799 L -0.7101692093038003 0.6668912390946435 C -0.668454749659555 0.6421148096657652 -0.6166921293213936 0.6769602465949784 -0.6239468179551755 0.7249287481648978 L -0.6241031690033174 0.7259710884858435 C -0.6300445088327074 0.7644855633447858 -0.6359858486620975 0.8030104616069373 -0.6419271884914881 0.8415353598690889 C -0.6543414617139509 0.9220144560493033 -0.6667557349364139 1.002493552229518 -0.6791700081588765 1.0829726484097324 C -0.6899686538838736 1.1529970711708617 -0.7007777230120802 1.2230214939319914 -0.7116493325595434 1.293504546434337 C -0.7200610189495751 1.348196143074356 -0.785436603879287 1.3851679542582986 -0.836896945524374 1.3674273219958035 Z M -0.547261840543203 0.7739395900557631 L -0.45313850956180945 1.2579815882965086 C -0.44330924033529207 1.3085455172655829 -0.4568283942979574 1.3623094310199602 -0.493643854433758 1.398332712511842 C -0.4979487199592636 1.4025437674084626 -0.5024412067425392 1.4064629670152182 -0.5070900445739568 1.4100694645256904 C -0.5282182828795254 1.4264654777741657 -0.5562259673033354 1.4294465710920703 -0.581002396732214 1.4201280486228158 C -0.6244784115188573 1.4037737289871786 -0.6688612623847239 1.346163579448512 -0.6615231865252662 1.2986120140069708 L -0.5806792712327209 0.7746066878611684 C -0.5777815651404918 0.7558028684713087 -0.550878761456884 0.7552816983108357 -0.5472514171399934 0.773960436862182 Z M -0.5367342033016518 -0.3445853849478163 C -0.5203381900531767 -0.3319105266451171 -0.5058496595920319 -0.3154102793645473 -0.4942692586263253 -0.2951993005414109 C -0.47920744098866086 -0.26889063084074244 -0.47543416902683755 -0.23759957440595375 -0.48005173664862655 -0.20764271358197545 C -0.4949988968509873 -0.11073633394365723 -0.5348579907239495 0.14761813800593426 -0.5567054438509709 0.28923049400961165 C -0.5596031499431995 0.3080343133994713 -0.5864955302235975 0.308482519737478 -0.5901228745404883 0.2898037811861317 L -0.6914383537364066 -0.2312308750449758 C -0.6972963063401212 -0.2613753571267243 -0.6894683305298193 -0.29249963911016175 -0.6700286835441829 -0.3162649984277228 C -0.6692156580938451 -0.31725522173262116 -0.6684234794499262 -0.31827671524714796 -0.6676625710156361 -0.31933990237451254 C -0.6363089741615906 -0.36262829590338586 -0.579021950122417 -0.37728360081588186 -0.5367342033016513 -0.34459580835102593 Z M -1.3814155291863872 -0.19175744709076353 L -1.0285103667238147 -0.49857032056111883 C -0.9857744135650428 -0.5357297530028317 -0.9257981514978293 -0.5501974366575574 -0.8727951461777423 -0.5302470429146575 C -0.8668329595419333 -0.5280060112246243 -0.8610896643735229 -0.525421007228679 -0.8555756840757203 -0.5225128777332406 C -0.8144553584144139 -0.5008634692671993 -0.7992684599382358 -0.44919465955792287 -0.8164358050242106 -0.40601050006114414 L -0.8205738960983648 -0.3956183670613159 C -0.8296109866809638 -0.3728953480647005 -0.8476955912493711 -0.3549566711412257 -0.8704915740684527 -0.34609677841318753 L -1.3598286611396024 -0.15600517408232734 C -1.3819783929596978 -0.14739544303131624 -1.3993437827066524 -0.17617445929262598 -1.3814155291863872 -0.19176787049397298 Z M -1.3146327848233985 -0.11958580326848606 L -0.8464552062674457 -0.3014637658702944 C -0.825212310526573 -0.30971910121218404 -0.8013531405801271 -0.30766569077992106 -0.7811525851602001 -0.2954911558312758 C -0.762452999802435 -0.2842234569618532 -0.749392475580986 -0.26555514181371637 -0.7452231142972032 -0.24411420141186413 L -0.6305239853803428 0.3457983032273326 L -0.6305239853803428 0.3457983032273326 C -0.6219455245389598 0.39054597320553 -0.6688612623847241 0.42539141013474335 -0.7092206796117404 0.4042631718291748 L -1.3267864729656254 0.0809708978846686 C -1.4047222587627326 0.040173697722855506 -1.4086101881598596 -0.07558861832136965 -1.3293089365423139 -0.11368615705193352 C -1.3245662880820113 -0.11595845895159512 -1.319677711976776 -0.11794932896460125 -1.3146327848233992 -0.11958580326848606 Z M -1.6193922478614908 0.257209799350161 L -1.6160254886248364 0.8322272608030441 C -1.6154730482547355 0.9267675279128156 -1.724741584099469 0.9858578007072252 -1.7993523042727593 0.9277994448305518 C -1.7998630510300226 0.9274033555085925 -1.800373797787286 0.9269968427834236 -1.8008845445445494 0.9265903300582548 L -2.180619546868263 0.6216015521495541 C -2.200288508724508 0.605799672884018 -2.208199871760485 0.5804499562786196 -2.2063132357795734 0.5541517099811606 C -2.204833112523831 0.533502948223227 -2.1939198093635297 0.514626165010901 -2.1783055513557636 0.5010548940321886 L -1.7992480702406648 0.17150857816200848 C -1.7984141979839081 0.1707789399373466 -1.797569902323942 0.1700701485191034 -1.7967047598575574 0.16936135710086042 C -1.7264927158386576 0.11152189269158563 -1.6199134180219636 0.1662551829444423 -1.6193818244582814 0.2572202227533702 Z M -2.373223191372602 0.37149199213864337 L -2.373223191372602 0.37149199213864337 C -2.364999126240341 0.31828051875436725 -2.330164112714337 0.27487746779018996 -2.280017119873641 0.2554482442077629 L -1.8374081493904852 0.08350378486456667 C -1.8152584175703899 0.07489405381355552 -1.7978930278234353 0.10367307007486526 -1.8158212813437005 0.1192664812762122 L -2.208199871760485 0.4603931981120988 C -2.2277958697942633 0.47743546235956047 -2.253739720382601 0.4853051317827002 -2.279506373116378 0.4820321831749306 L -2.290607297534449 0.48062502374165406 C -2.3440168155797045 0.473849811655507 -2.3811970948278365 0.4247347357325475 -2.373223191372602 0.3714815687354337 Z M -2.3660206197548677 0.7602432382385369 C -2.366145700593381 0.759534446820294 -2.3662707814318944 0.7588256554020509 -2.3663854388671983 0.7581272873870173 C -2.375016016724629 0.7057809564691262 -2.335740633431396 0.6573225549483626 -2.283331762094248 0.649025525993635 L -2.2831545642396875 0.6489942557840067 C -2.2531977034157094 0.6442516073237037 -2.2226362852055823 0.65238186182708 -2.1989855833233256 0.6713733024747102 L -1.7917432199298557 0.998449271784249 C -1.7745862982470901 1.0122290108271506 -1.7896168456751265 1.0394757868166704 -1.8104219584812018 1.0323149088117733 L -2.261390498338342 0.8770687414101268 C -2.3141537653846114 0.8589007496160439 -2.356170503721931 0.8151745731523734 -2.366010196351658 0.7602432382385369 Z" fill="#bd2949" transform="matrix(1,0,0,1,0,0)" fill-rule="nonzero"></path></g></g><g><path d=" M 0.18 0.9967499999999998 Q 0.0615 0.9089999999999998 0.0525 0.7454999999999998 L 0.366 0.7454999999999998 Q 0.3705 0.8009999999999998 0.399 0.8264999999999998 Q 0.4275 0.8519999999999999 0.47250000000000003 0.8519999999999999 Q 0.513 0.8519999999999999 0.53925 0.8317499999999999 Q 0.5655 0.8114999999999999 0.5655 0.7754999999999999 Q 0.5655 0.7289999999999999 0.522 0.7034999999999998 Q 0.47850000000000004 0.6779999999999998 0.381 0.6464999999999999 Q 0.2775 0.6119999999999999 0.21375 0.5797499999999998 Q 0.15 0.5474999999999999 0.10275000000000001 0.48524999999999985 Q 0.0555 0.4229999999999998 0.0555 0.3224999999999998 Q 0.0555 0.2204999999999998 0.1065 0.14774999999999983 Q 0.1575 0.07499999999999984 0.2475 0.03749999999999987 Q 0.3375 -2.220446049250313e-16 0.4515 -2.220446049250313e-16 Q 0.636 -2.220446049250313e-16 0.74625 0.08624999999999983 Q 0.8565 0.17249999999999988 0.864 0.3284999999999998 L 0.5445 0.3284999999999998 Q 0.543 0.28049999999999986 0.51525 0.25649999999999984 Q 0.4875 0.23249999999999982 0.444 0.23249999999999982 Q 0.41100000000000003 0.23249999999999982 0.39 0.2519999999999998 Q 0.369 0.27149999999999985 0.369 0.3074999999999998 Q 0.369 0.3374999999999998 0.39225 0.35924999999999985 Q 0.41550000000000004 0.3809999999999998 0.45 0.3967499999999998 Q 0.4845 0.41249999999999987 0.552 0.4364999999999998 Q 0.6525 0.47099999999999986 0.71775 0.5047499999999998 Q 0.783 0.5384999999999999 0.83025 0.5992499999999998 Q 0.8775000000000001 0.6599999999999998 0.8775000000000001 0.7529999999999999 Q 0.8775000000000001 0.8474999999999998 0.83025 0.9224999999999999 Q 0.783 0.9974999999999998 0.69375 1.041 Q 0.6045 1.0844999999999998 0.483 1.0844999999999998 Q 0.2985 1.0844999999999998 0.18 0.9967499999999998 M 2.36174267578125 0.32099999999999984 Q 2.45249267578125 0.4169999999999998 2.45249267578125 0.5834999999999999 L 2.45249267578125 1.0739999999999998 L 2.15849267578125 1.0739999999999998 L 2.15849267578125 0.6224999999999998 Q 2.15849267578125 0.5549999999999998 2.12099267578125 0.5174999999999998 Q 2.08349267578125 0.47999999999999987 2.01899267578125 0.47999999999999987 Q 1.95449267578125 0.47999999999999987 1.91699267578125 0.5174999999999998 Q 1.87949267578125 0.5549999999999998 1.87949267578125 0.6224999999999998 L 1.87949267578125 1.0739999999999998 L 1.58549267578125 1.0739999999999998 L 1.58549267578125 0.6224999999999998 Q 1.58549267578125 0.5549999999999998 1.54874267578125 0.5174999999999998 Q 1.5119926757812499 0.47999999999999987 1.44749267578125 0.47999999999999987 Q 1.38149267578125 0.47999999999999987 1.34399267578125 0.5174999999999998 Q 1.30649267578125 0.5549999999999998 1.30649267578125 0.6224999999999998 L 1.30649267578125 1.0739999999999998 L 1.01249267578125 1.0739999999999998 L 1.01249267578125 0.23249999999999982 L 1.30649267578125 0.23249999999999982 L 1.30649267578125 0.3434999999999998 Q 1.34549267578125 0.28949999999999987 1.40774267578125 0.25724999999999987 Q 1.46999267578125 0.22499999999999987 1.55099267578125 0.22499999999999987 Q 1.64399267578125 0.22499999999999987 1.71674267578125 0.26549999999999985 Q 1.78949267578125 0.3059999999999998 1.83149267578125 0.37949999999999984 Q 1.87649267578125 0.3104999999999998 1.94999267578125 0.2677499999999998 Q 2.0234926757812497 0.22499999999999987 2.11199267578125 0.22499999999999987 Q 2.27099267578125 0.22499999999999987 2.36174267578125 0.32099999999999984 M 2.610767578125 0.4244999999999999 Q 2.658017578125 0.32699999999999985 2.739767578125 0.27449999999999986 Q 2.821517578125 0.22199999999999986 2.9220175781249997 0.22199999999999986 Q 3.009017578125 0.22199999999999986 3.072017578125 0.25649999999999984 Q 3.135017578125 0.2909999999999998 3.169517578125 0.3494999999999998 L 3.169517578125 0.23249999999999982 L 3.463517578125 0.23249999999999982 L 3.463517578125 1.0739999999999998 L 3.169517578125 1.0739999999999998 L 3.169517578125 0.9569999999999999 Q 3.135017578125 1.0154999999999998 3.071267578125 1.0499999999999998 Q 3.007517578125 1.0844999999999998 2.9220175781249997 1.0844999999999998 Q 2.821517578125 1.0844999999999998 2.739767578125 1.0319999999999998 Q 2.658017578125 0.9794999999999998 2.610767578125 0.8812499999999999 Q 2.563517578125 0.7829999999999999 2.563517578125 0.6524999999999999 Q 2.563517578125 0.5219999999999998 2.610767578125 0.4244999999999999 M 3.125267578125 0.5249999999999998 Q 3.081017578125 0.4784999999999998 3.0165175781249998 0.4784999999999998 Q 2.950517578125 0.4784999999999998 2.907017578125 0.5242499999999999 Q 2.8635175781249997 0.5699999999999998 2.8635175781249997 0.6524999999999999 Q 2.8635175781249997 0.7334999999999998 2.907017578125 0.7807499999999998 Q 2.950517578125 0.8279999999999998 3.0165175781249998 0.8279999999999998 Q 3.081017578125 0.8279999999999998 3.125267578125 0.7814999999999999 Q 3.169517578125 0.7349999999999999 3.169517578125 0.6524999999999999 Q 3.169517578125 0.5714999999999998 3.125267578125 0.5249999999999998 M 4.044006591796875 0.2669999999999998 Q 4.114506591796875 0.22499999999999987 4.195506591796875 0.22499999999999987 L 4.195506591796875 0.5384999999999999 L 4.113006591796875 0.5384999999999999 Q 4.017006591796875 0.5384999999999999 3.970506591796875 0.5759999999999998 Q 3.924006591796875 0.6134999999999998 3.924006591796875 0.7064999999999999 L 3.924006591796875 1.0739999999999998 L 3.630006591796875 1.0739999999999998 L 3.630006591796875 0.23249999999999982 L 3.924006591796875 0.23249999999999982 L 3.924006591796875 0.3809999999999998 Q 3.973506591796875 0.30899999999999983 4.044006591796875 0.2669999999999998 M 4.795538818359375 0.8234999999999999 L 4.795538818359375 1.0739999999999998 L 4.668038818359375 1.0739999999999998 Q 4.345538818359374 1.0739999999999998 4.345538818359374 0.7544999999999998 L 4.345538818359374 0.47699999999999987 L 4.242038818359375 0.47699999999999987 L 4.242038818359375 0.23249999999999982 L 4.345538818359374 0.23249999999999982 L 4.345538818359374 0.028499999999999748 L 4.641038818359375 0.028499999999999748 L 4.641038818359375 0.23249999999999982 L 4.7940388183593745 0.23249999999999982 L 4.7940388183593745 0.47699999999999987 L 4.641038818359375 0.47699999999999987 L 4.641038818359375 0.7589999999999999 Q 4.641038818359375 0.7934999999999999 4.656788818359375 0.8084999999999998 Q 4.672538818359374 0.8234999999999999 4.710038818359375 0.8234999999999999 L 4.795538818359375 0.8234999999999999 M 5.5080380859375 0.8489999999999999 L 5.8365380859375 0.8489999999999999 L 5.8365380859375 1.0739999999999998 L 5.214038085937499 1.0739999999999998 L 5.214038085937499 0.016499999999999737 L 5.5080380859375 0.016499999999999737 L 5.5080380859375 0.8489999999999999 M 6.748579833984374 0.7124999999999999 L 6.192079833984375 0.7124999999999999 Q 6.196579833984375 0.7814999999999999 6.230329833984374 0.8152499999999998 Q 6.264079833984375 0.8489999999999999 6.316579833984375 0.8489999999999999 Q 6.390079833984375 0.8489999999999999 6.421579833984374 0.7829999999999999 L 6.735079833984375 0.7829999999999999 Q 6.715579833984375 0.8699999999999999 6.6593298339843745 0.9382499999999998 Q 6.603079833984374 1.0065 6.5175798339843745 1.0454999999999999 Q 6.432079833984375 1.0844999999999998 6.328579833984374 1.0844999999999998 Q 6.204079833984375 1.0844999999999998 6.107329833984375 1.0319999999999998 Q 6.010579833984375 0.9794999999999998 5.9558298339843745 0.8819999999999999 Q 5.901079833984374 0.7844999999999999 5.901079833984374 0.6524999999999999 Q 5.901079833984374 0.5204999999999999 5.9550798339843745 0.42374999999999985 Q 6.009079833984375 0.32699999999999985 6.105829833984375 0.27449999999999986 Q 6.202579833984375 0.22199999999999986 6.328579833984374 0.22199999999999986 Q 6.453079833984375 0.22199999999999986 6.549079833984375 0.2729999999999998 Q 6.645079833984375 0.32399999999999984 6.699079833984374 0.4192499999999998 Q 6.7530798339843745 0.5144999999999998 6.7530798339843745 0.6434999999999998 Q 6.7530798339843745 0.6779999999999998 6.748579833984374 0.7124999999999999 M 6.453079833984375 0.5699999999999998 Q 6.453079833984375 0.5159999999999998 6.417079833984374 0.48524999999999985 Q 6.381079833984375 0.4544999999999998 6.327079833984374 0.4544999999999998 Q 6.273079833984375 0.4544999999999998 6.2385798339843745 0.4837499999999998 Q 6.204079833984375 0.5129999999999998 6.193579833984375 0.5699999999999998 L 6.453079833984375 0.5699999999999998 M 6.870871582031249 0.4244999999999999 Q 6.918121582031249 0.32699999999999985 6.99987158203125 0.27449999999999986 Q 7.081621582031249 0.22199999999999986 7.182121582031249 0.22199999999999986 Q 7.269121582031249 0.22199999999999986 7.33212158203125 0.25649999999999984 Q 7.3951215820312495 0.2909999999999998 7.42962158203125 0.3494999999999998 L 7.42962158203125 0.23249999999999982 L 7.7236215820312495 0.23249999999999982 L 7.7236215820312495 1.0739999999999998 L 7.42962158203125 1.0739999999999998 L 7.42962158203125 0.9569999999999999 Q 7.3951215820312495 1.0154999999999998 7.33137158203125 1.0499999999999998 Q 7.26762158203125 1.0844999999999998 7.182121582031249 1.0844999999999998 Q 7.081621582031249 1.0844999999999998 6.99987158203125 1.0319999999999998 Q 6.918121582031249 0.9794999999999998 6.870871582031249 0.8812499999999999 Q 6.823621582031249 0.7829999999999999 6.823621582031249 0.6524999999999999 Q 6.823621582031249 0.5219999999999998 6.870871582031249 0.4244999999999999 M 7.385371582031249 0.5249999999999998 Q 7.341121582031249 0.4784999999999998 7.276621582031249 0.4784999999999998 Q 7.21062158203125 0.4784999999999998 7.16712158203125 0.5242499999999999 Q 7.12362158203125 0.5699999999999998 7.12362158203125 0.6524999999999999 Q 7.12362158203125 0.7334999999999998 7.16712158203125 0.7807499999999998 Q 7.21062158203125 0.8279999999999998 7.276621582031249 0.8279999999999998 Q 7.341121582031249 0.8279999999999998 7.385371582031249 0.7814999999999999 Q 7.42962158203125 0.7349999999999999 7.42962158203125 0.6524999999999999 Q 7.42962158203125 0.5714999999999998 7.385371582031249 0.5249999999999998 M 8.304110595703124 0.2669999999999998 Q 8.374610595703125 0.22499999999999987 8.455610595703124 0.22499999999999987 L 8.455610595703124 0.5384999999999999 L 8.373110595703125 0.5384999999999999 Q 8.277110595703125 0.5384999999999999 8.230610595703125 0.5759999999999998 Q 8.184110595703125 0.6134999999999998 8.184110595703125 0.7064999999999999 L 8.184110595703125 1.0739999999999998 L 7.890110595703124 1.0739999999999998 L 7.890110595703124 0.23249999999999982 L 8.184110595703125 0.23249999999999982 L 8.184110595703125 0.3809999999999998 Q 8.233610595703125 0.30899999999999983 8.304110595703124 0.2669999999999998 M 9.340642822265625 0.32174999999999987 Q 9.426142822265625 0.41849999999999987 9.426142822265625 0.5834999999999999 L 9.426142822265625 1.0739999999999998 L 9.132142822265624 1.0739999999999998 L 9.132142822265624 0.6224999999999998 Q 9.132142822265624 0.5504999999999999 9.094642822265625 0.5092499999999999 Q 9.057142822265625 0.46799999999999986 8.994142822265625 0.46799999999999986 Q 8.928142822265624 0.46799999999999986 8.890642822265624 0.5092499999999999 Q 8.853142822265625 0.5504999999999999 8.853142822265625 0.6224999999999998 L 8.853142822265625 1.0739999999999998 L 8.559142822265624 1.0739999999999998 L 8.559142822265624 0.23249999999999982 L 8.853142822265625 0.23249999999999982 L 8.853142822265625 0.3524999999999998 Q 8.892142822265624 0.2954999999999999 8.958142822265625 0.26024999999999987 Q 9.024142822265624 0.22499999999999987 9.109642822265624 0.22499999999999987 Q 9.255142822265624 0.22499999999999987 9.340642822265625 0.32174999999999987" fill="#ffffff" fill-rule="nonzero"></path></g><g></g></g><defs><clipPath id="SvgjsClipPath66177"><path d=" M -2.425340207419885 -0.5894207029347427 h 2.025340207419885 v 2.2528414058694852 h -2.025340207419885 Z"></path></clipPath><clipPath id="SvgjsClipPath6617581fb335c-b1b1-4e61-8b79-67a556952325"><path d=" M -2.425340207419885 -0.5894207029347427 L -0.3999999999999999 -0.5894207029347427 L -0.3999999999999999 1.6634207029347425 L -2.425340207419885 1.6634207029347425 Z"></path></clipPath></defs></svg>